# xmcd
#
# Track frame offsets: 
#        175
#        7162
#        8617
#        23425
#        28980
#        47145
#        63540
#        67725
#        76892
#        95025
#        110712
#        113327
#        127857
#        139562
#        141800
#        154295
#        163197
#        178217
#        179150
#        190300
#        204387
#        217300
#
# Disc length: 3074 seconds
#
# Revision: 0
# Processed by: cddbd v1.5PL3 Copyright (c) Steve Scherf et al.
# Submitted via: ExactAudioCopy v0.95a4
#
DISCID=3b0c0016
DTITLE=BOJTORJÁN - KARÁCSONYI ALBUM
DYEAR=1992
DGENRE=Folk/Rock
TTITLE0=Adeste fideles (gregorián dal)
TTITLE1=Arckép (Radnóti Miklós)
TTITLE2=Karácsony este (Trad. amerikai)
TTITLE3=Téli alkony (Kosztolányi Dezsö)
TTITLE4=Éjfél elött
TTITLE5=A mai nap
TTITLE6=Kis karácsonyi ének (Ady Endre)
TTITLE7=Mit mondanál? (Trad. francia)
TTITLE8=Nõl a dér, álom jár (Weöres Sándor)
TTITLE9=Csengõszó
TTITLE10=December (Heltai Jenö)
TTITLE11=Téli ünnep
TTITLE12=Ballett (H. Praetorius)
TTITLE13=Szép a fenyõ (Weöres Sándor)
TTITLE14=A fenyöfa
TTITLE15=Száncsengö
TTITLE16=Waltz (Benkö Dániel)
TTITLE17=Karácsony III. (Ady Endre)
TTITLE18=December végén
TTITLE19=Összetartozunk
TTITLE20=Vigyázz magadra, fiam!
TTITLE21=Silent Night (Csendes éj)
EXTD=
EXTT0=
EXTT1=
EXTT2=
EXTT3=
EXTT4=
EXTT5=
EXTT6=
EXTT7=
EXTT8=
EXTT9=
EXTT10=
EXTT11=
EXTT12=
EXTT13=
EXTT14=
EXTT15=
EXTT16=
EXTT17=
EXTT18=
EXTT19=
EXTT20=
EXTT21=
PLAYORDER=
